<svg xmlns="http://www.w3.org/2000/svg" width="156" height="153" viewBox="0 0 156 153" version="1.1">
	<path d="M 62 1.940 C 35.726 7.504, 13.385 27.361, 5.527 52.135 C 0.124 69.168, 0.124 84.832, 5.527 101.865 C 13.033 125.528, 34.940 145.765, 59.258 151.499 C 68.707 153.726, 88.811 153.478, 98.445 151.014 C 111.144 147.766, 121.128 141.872, 131.500 131.500 C 141.635 121.365, 146.892 113.153, 150.473 101.865 C 155.876 84.832, 155.876 69.168, 150.473 52.135 C 146.908 40.896, 141.630 32.636, 131.500 22.446 C 123.892 14.793, 121.014 12.658, 112.895 8.648 C 96.363 0.482, 79.429 -1.750, 62 1.940 M 50.675 9.470 C 33.265 16.546, 18.680 30.806, 11.257 48.010 L 8.743 53.837 13.122 59.055 C 15.530 61.926, 21.550 67.608, 26.500 71.683 L 35.500 79.091 36.273 72.295 C 37.188 64.252, 41.281 54.909, 46.346 49.302 C 49.629 45.668, 50.009 44.591, 51.058 35.925 C 51.687 30.741, 53.275 22.257, 54.588 17.071 C 55.901 11.885, 56.858 7.525, 56.715 7.382 C 56.572 7.238, 53.854 8.178, 50.675 9.470 M 118.458 31.486 C 109.505 34.135, 99.916 37.739, 98.716 38.906 C 98.285 39.325, 100.293 41.430, 103.180 43.584 C 109.515 48.311, 115.417 56.474, 117.671 63.626 C 119.105 68.173, 120.099 69.419, 124.916 72.698 C 127.987 74.789, 134.635 80.477, 139.688 85.337 L 148.877 94.175 149.674 90.337 C 151.083 83.558, 150.477 65.983, 148.596 59.058 C 146.164 50.105, 141.680 40.583, 136.944 34.310 C 132.195 28.020, 130.860 27.816, 118.458 31.486 M 63.306 61.413 L 60.500 63.827 60.500 78 L 60.500 92.173 63.306 94.587 C 65.992 96.897, 66.728 97, 80.556 97 L 95 97 95 93.528 L 95 90.056 81.250 89.778 L 67.500 89.500 67.500 78 L 67.500 66.500 81.250 66.222 L 95 65.944 95 62.472 L 95 59 80.556 59 C 66.728 59, 65.992 59.103, 63.306 61.413 M 6.488 61.724 C 6.077 62.701, 5.526 68.225, 5.263 74 C 4.878 82.438, 5.199 86.236, 6.895 93.342 C 9.279 103.326, 14.069 113.750, 19.617 121.024 C 23.801 126.512, 22.358 126.356, 36.478 122.849 C 43.163 121.189, 59 115.371, 59 114.575 C 59 114.444, 56.775 112.895, 54.056 111.133 C 46.846 106.461, 39.677 96.285, 37.647 87.840 C 37.220 86.065, 34.761 83.580, 30.254 80.366 C 26.539 77.719, 19.840 72.041, 15.367 67.750 C 8.511 61.174, 7.116 60.228, 6.488 61.724 M 119.988 78.688 C 119.962 87.104, 115.533 98.191, 109.552 104.811 C 106.490 108.200, 106.087 109.398, 105.032 118.232 C 104.395 123.568, 102.777 132.030, 101.437 137.039 C 100.097 142.047, 99 146.317, 99 146.528 C 99 147.279, 107.251 143.984, 112.871 140.988 C 120.384 136.984, 128.371 130.373, 134.292 123.258 C 138.973 117.635, 147 103.168, 147 100.357 C 147 98.553, 130.901 82.541, 124.710 78.188 L 120 74.876 119.988 78.688" stroke="none" fill="black" fill-rule="evenodd"/>
</svg>